<?xml version="1.0" encoding="UTF-8" standalone="no"?>
<!-- Created with Inkscape (http://www.inkscape.org/) -->

<svg
   version="1.1"
   id="svg1"
   width="1837.8933"
   height="510.54666"
   viewBox="0 0 1837.8933 510.54666"
   xmlns="http://www.w3.org/2000/svg"
   xmlns:svg="http://www.w3.org/2000/svg">
  <defs
     id="defs1" />
  <g
     id="layer-MC0"
     transform="translate(-5573.6802)">
    <path
       id="path55"
       d="m 0,0 c -3.125,-1.293 -6.771,-1.937 -10.938,-1.937 -3.583,0 -6.874,0.625 -9.874,1.875 -3,1.249 -5.563,3 -7.688,5.249 -2.125,2.25 -3.793,4.958 -5,8.126 -1.209,3.166 -1.813,6.749 -1.813,10.749 0,3.833 0.604,7.333 1.813,10.501 1.207,3.166 2.875,5.875 5,8.125 2.125,2.25 4.707,3.978 7.75,5.187 3.041,1.207 6.312,1.813 9.812,1.813 4.083,0 7.667,-0.668 10.751,-2 3.082,-1.334 5.707,-3.168 7.874,-5.5 l 15,15.125 c -4.25,3.832 -9.167,6.853 -14.75,9.062 -5.583,2.207 -11.875,3.313 -18.875,3.313 -6.749,0 -12.98,-1.168 -18.687,-3.5 -5.709,-2.334 -10.709,-5.543 -15,-9.625 -4.293,-4.084 -7.605,-8.897 -9.938,-14.438 -2.333,-5.543 -3.5,-11.563 -3.5,-18.063 0,-6.583 1.188,-12.667 3.563,-18.25 2.375,-5.583 5.707,-10.437 10,-14.562 4.291,-4.125 9.312,-7.355 15.063,-9.687 5.75,-2.333 12,-3.5 18.749,-3.5 7.333,0 13.729,1.105 19.188,3.312 5.457,2.207 10.354,5.229 14.687,9.062 l -14.999,15 C 5.854,3.104 3.125,1.291 0,0"
       style="fill:#ffffff;fill-opacity:1;fill-rule:nonzero;stroke:none"
       transform="matrix(1.3333333,0,0,-1.3333333,6116.8839,287.10653)" />
    <path
       id="path56"
       d="M 0,0 10.367,29.705 20.584,0 Z m -0.229,55.375 -34.5,-88.625 h 23.125 l 5.409,15.5 H 26.69 l 5.331,-15.5 h 23.5 L 21.396,55.375 Z"
       style="fill:#ffffff;fill-opacity:1;fill-rule:nonzero;stroke:none"
       transform="matrix(1.3333333,0,0,-1.3333333,6195.1059,270.0232)" />
    <path
       id="path57"
       d="m 0,0 c 3.582,0 6.354,-0.937 8.313,-2.813 1.957,-1.874 2.937,-4.312 2.937,-7.312 0,-3.084 -0.98,-5.543 -2.937,-7.375 C 6.354,-19.334 3.582,-20.25 0,-20.25 H -12.25 V 0 Z m 18.625,-32.813 c 4.666,2.208 8.312,5.27 10.937,9.188 2.626,3.916 3.938,8.541 3.938,13.875 0,5.25 -1.293,9.832 -3.875,13.75 -2.584,3.916 -6.146,7 -10.688,9.25 -4.542,2.25 -9.771,3.375 -15.687,3.375 h -15.5 -4.625 -17.75 V -72 h 22.375 v 35.875 h 1.315 L 13.375,-72 H 39.25 l -27.056,36.973 c 2.285,0.54 4.435,1.27 6.431,2.214"
       style="fill:#ffffff;fill-opacity:1;fill-rule:nonzero;stroke:none"
       transform="matrix(1.3333333,0,0,-1.3333333,6326.1325,218.35653)" />
    <path
       id="path58"
       d="m 0,0 c 3.582,0 6.354,-0.937 8.313,-2.813 1.957,-1.874 2.937,-4.312 2.937,-7.312 0,-3.084 -0.98,-5.543 -2.937,-7.375 C 6.354,-19.334 3.582,-20.25 0,-20.25 H -12.25 V 0 Z m 18.625,-32.813 c 4.666,2.208 8.312,5.27 10.937,9.188 2.626,3.916 3.938,8.541 3.938,13.875 0,5.25 -1.293,9.832 -3.875,13.75 -2.584,3.916 -6.146,7 -10.688,9.25 -4.542,2.25 -9.771,3.375 -15.687,3.375 h -15.5 -4.625 -17.75 V -72 h 22.375 v 35.875 h 1.315 L 13.375,-72 H 39.25 l -27.056,36.973 c 2.285,0.54 4.435,1.27 6.431,2.214"
       style="fill:#ffffff;fill-opacity:1;fill-rule:nonzero;stroke:none"
       transform="matrix(1.3333333,0,0,-1.3333333,6434.3005,218.35653)" />
    <path
       id="path59"
       d="m 691.965,147.143 h 22.375 v 88.625 h -22.375 z"
       style="fill:#ffffff;fill-opacity:1;fill-rule:nonzero;stroke:none"
       transform="matrix(1.3333333,0,0,-1.3333333,5573.68,510.54667)" />
    <path
       id="path60"
       d="M 0,0 H 38.875 V 18.375 H 0 V 33.75 H 42.75 V 52.625 H 0 -4.625 -22.375 V -36 H -4.625 0 43.375 v 18.875 H 0 Z"
       style="fill:#ffffff;fill-opacity:1;fill-rule:nonzero;stroke:none"
       transform="matrix(1.3333333,0,0,-1.3333333,6576.9659,266.35653)" />
    <path
       id="path61"
       d="m 0,0 c 3.582,0 6.354,-0.937 8.313,-2.813 1.957,-1.874 2.937,-4.312 2.937,-7.312 0,-3.084 -0.98,-5.543 -2.937,-7.375 C 6.354,-19.334 3.582,-20.25 0,-20.25 H -12.25 V 0 Z m 18.625,-32.813 c 4.666,2.208 8.312,5.27 10.937,9.188 2.626,3.916 3.938,8.541 3.938,13.875 0,5.25 -1.293,9.832 -3.875,13.75 -2.584,3.916 -6.146,7 -10.688,9.25 -4.542,2.25 -9.771,3.375 -15.687,3.375 h -15.5 -4.625 -17.75 V -72 h 22.375 v 35.875 h 1.315 L 13.375,-72 H 39.25 l -27.056,36.973 c 2.285,0.54 4.435,1.27 6.431,2.214"
       style="fill:#ffffff;fill-opacity:1;fill-rule:nonzero;stroke:none"
       transform="matrix(1.3333333,0,0,-1.3333333,6697.7979,218.35653)" />
    <path
       id="path62"
       d="m 0,0 c -2.459,2.082 -5.146,3.791 -8.063,5.125 -2.917,1.332 -5.855,2.5 -8.812,3.5 -2.959,1 -5.668,2 -8.125,3 -2.459,1 -4.437,2.104 -5.937,3.313 -1.501,1.207 -2.251,2.812 -2.251,4.812 0,2 0.875,3.541 2.626,4.625 1.75,1.082 4.166,1.625 7.25,1.625 3.332,0 6.353,-0.668 9.062,-2 2.707,-1.334 5.395,-3.375 8.063,-6.125 l 14.25,14.25 c -3.418,3.832 -7.856,6.832 -13.313,9 -5.459,2.166 -11.396,3.25 -17.812,3.25 -6.418,0 -12.043,-1.062 -16.876,-3.187 -4.833,-2.125 -8.605,-5.231 -11.312,-9.313 -2.709,-4.084 -4.063,-8.918 -4.063,-14.5 0,-4.5 0.75,-8.23 2.25,-11.188 1.5,-2.958 3.479,-5.458 5.938,-7.499 2.457,-2.043 5.145,-3.731 8.062,-5.063 2.917,-1.334 5.875,-2.5 8.876,-3.5 3,-1 5.707,-2 8.125,-3 2.416,-1 4.394,-2.168 5.937,-3.5 1.541,-1.334 2.312,-3.084 2.312,-5.25 0,-2.25 -1.021,-4.021 -3.062,-5.312 -2.043,-1.293 -4.937,-1.938 -8.687,-1.938 -4.418,0 -8.376,0.875 -11.876,2.625 -3.5,1.75 -6.75,4.207 -9.75,7.375 l -14.25,-14.25 c 4.5,-4.834 9.458,-8.396 14.875,-10.688 5.417,-2.291 11.833,-3.437 19.251,-3.437 11.166,0 19.875,2.457 26.125,7.375 6.249,4.916 9.375,11.75 9.375,20.5 0,4.5 -0.751,8.332 -2.251,11.5 C 4.437,-4.709 2.457,-2.084 0,0"
       style="fill:#ffffff;fill-opacity:1;fill-rule:nonzero;stroke:none"
       transform="matrix(1.3333333,0,0,-1.3333333,6866.2145,253.35653)" />
    <path
       id="path63"
       d="M 0,0 H -31.875 V 33.875 H -54.25 V -54.75 h 22.375 v 35.875 H 0 V -54.75 H 22.375 V 33.875 H 0 Z"
       style="fill:#ffffff;fill-opacity:1;fill-rule:nonzero;stroke:none"
       transform="matrix(1.3333333,0,0,-1.3333333,6964.63,241.35653)" />
    <path
       id="path64"
       d="M 0,0 10.367,29.705 20.584,0 Z m -0.229,55.375 -34.5,-88.625 h 23.125 l 5.409,15.5 H 26.69 l 5.331,-15.5 h 23.5 L 21.396,55.375 Z"
       style="fill:#ffffff;fill-opacity:1;fill-rule:nonzero;stroke:none"
       transform="matrix(1.3333333,0,0,-1.3333333,7052.9341,270.0232)" />
    <path
       id="path65"
       d="m 0,0 c 3.582,0 6.354,-0.937 8.313,-2.813 1.957,-1.874 2.937,-4.312 2.937,-7.312 0,-3.084 -0.98,-5.543 -2.937,-7.375 C 6.354,-19.334 3.582,-20.25 0,-20.25 H -12.25 V 0 Z m 18.625,-32.813 c 4.666,2.208 8.312,5.27 10.937,9.188 2.626,3.916 3.938,8.541 3.938,13.875 0,5.25 -1.293,9.832 -3.875,13.75 -2.584,3.916 -6.146,7 -10.688,9.25 -4.542,2.25 -9.771,3.375 -15.687,3.375 h -15.5 -4.625 -17.75 V -72 h 22.375 v 35.875 h 1.315 L 13.375,-72 H 39.25 l -27.056,36.973 c 2.285,0.54 4.435,1.27 6.431,2.214"
       style="fill:#ffffff;fill-opacity:1;fill-rule:nonzero;stroke:none"
       transform="matrix(1.3333333,0,0,-1.3333333,7183.962,218.35653)" />
    <path
       id="path66"
       d="m 0,0 -34.909,46.393 33.534,42.232 h -27.25 l -30,-39.844 V 88.625 H -81 V 0 h 22.375 V 43.361 L -27.25,0 Z"
       style="fill:#ffffff;fill-opacity:1;fill-rule:nonzero;stroke:none"
       transform="matrix(1.3333333,0,0,-1.3333333,7353.962,314.35653)" />
    <path
       id="path67"
       d="m 0,0 c 0,0 -40.569,-19.564 -62.038,-19.994 0,0 -2.147,4.938 0,13.526 0,0 -7.085,-2.147 -11.594,-15.029 0,0 -1.932,8.373 0,15.673 0,0 -13.32,-9.313 -13.637,-29.99 -0.318,-20.677 17.931,-12.734 29.525,-5.649 11.593,7.085 23.186,12.023 33.706,19.752 C -13.518,-13.982 0,0 0,0"
       style="fill:#ffffff;fill-opacity:1;fill-rule:nonzero;stroke:none"
       transform="matrix(1.3333333,0,0,-1.3333333,5890.3261,264.60067)" />
    <path
       id="path68"
       d="m 0,0 c 0,0 19.288,27.975 74.145,23.109 0,0 -13.31,41.036 -52.465,56.853 0,0 21.342,-30.484 20.348,-39.981 L 0,20.35 Z"
       style="fill:#ffffff;fill-opacity:1;fill-rule:nonzero;stroke:none"
       transform="matrix(1.3333333,0,0,-1.3333333,5642.3,307.11587)" />
    <path
       id="path69"
       d="m 0,0 c 0,0 14.931,0.998 18.359,-1.325 3.429,-2.322 -2.322,-6.304 -2.322,-6.304 0,0 -6.312,6.415 -16.037,7.629"
       style="fill:#ffffff;fill-opacity:1;fill-rule:nonzero;stroke:none"
       transform="matrix(1.3333333,0,0,-1.3333333,5877.3595,232.6492)" />
    <path
       id="path70"
       d="m 0,0 c -7.56,-7.56 -16.39,-13.42 -26.5,-17.6 -10.11,-4.18 -21.91,-6.27 -35.39,-6.27 -11.6,0 -22.25,2.02 -31.96,6.07 -5.336,2.22 -10.227,4.95 -14.706,8.151 -4.747,-2.192 -8.911,-4.252 -12.416,-6.076 -11.417,-5.942 -18.328,-10.576 -20.307,-11.95 -1.515,-3.063 -7.755,-15.109 -18.182,-27.843 4.33,-3.408 8.849,-6.583 13.571,-9.512 3.04,-1.89 6.17,-3.68 9.38,-5.37 4.74,-2.52 9.66,-4.81 14.75,-6.87 18.61,-7.54 38.83,-11.32 60.67,-11.32 23.73,0 44.43,3.58 62.1,10.72 17.66,7.14 33.5,16.92 47.53,29.32 z"
       style="fill:#ffffff;fill-opacity:1;fill-rule:nonzero;stroke:none"
       transform="matrix(1.3333333,0,0,-1.3333333,5917.1403,334.81973)" />
    <path
       id="path71"
       d="M 0,0 C 16.052,12.184 28.9,16.686 34.088,18.126 33.665,35.36 25.476,49.795 17.703,57.746 l -4.013,4.105 5.661,0.95 c 3.483,0.585 7.016,0.882 10.498,0.882 20.667,0 36.96,-10.104 47.034,-18.628 0.55,1.796 1.134,3.573 1.795,5.308 0.22,0.59 0.45,1.17 0.69,1.74 3.84,9.5 9.01,17.69 15.49,24.55 6.88,7.28 15.23,12.87 25.08,16.79 9.84,3.9 20.43,5.86 31.76,5.86 13.21,0 24.8,-2.16 34.78,-6.47 9.98,-4.32 18.47,-10.25 25.49,-17.8 l 48.54,48.95 c -13.76,12.4 -29.67,22.17 -47.73,29.32 -18.07,7.14 -38.43,10.72 -61.08,10.72 -21.85,0 -42.01,-3.78 -60.48,-11.32 -18.47,-7.56 -34.65,-17.94 -48.54,-31.15 -13.89,-13.22 -24.61,-28.79 -32.16,-46.72 -7.55,-17.94 -11.32,-37.42 -11.32,-58.45 0,-0.97 0.01,-1.94 0.03,-2.9 C -0.697,8.911 -0.433,4.42 0,0"
       style="fill:#ffffff;fill-opacity:1;fill-rule:nonzero;stroke:none"
       transform="matrix(1.3333333,0,0,-1.3333333,5632.3559,276.30373)" />
    <path
       id="path72"
       d="m 0,0 c -55.84,28.82 -159.94,1.37 -159.94,1.37 0,0 -26.53,34.79 -66.01,28.16 7.46,-7.63 17.58,-23.44 17.25,-44.07 0,0 -15.723,-2.89 -36.718,-19.249 0,0 1.548,-35.006 21.677,-62.877 0,0 -11.29,42.066 -10.309,61.382 28.352,15.318 55.54,13.714 55.54,13.714 -8.62,35.17 -38.15,48.11 -38.15,48.11 34.5,-2.65 53.94,-31.52 53.94,-31.52 C -67.97,20.9 -8.96,-1 -8.96,-1 c -27.205,-5.141 -50.099,-32.182 -104.5,-46.31 -1.25,-7.76 -1.67,-14.08 -1.67,-14.08 -1.28,4.12 -2.09,8.47 -2.61,12.4 -0.95,7.32 -0.88,13.15 -0.88,13.15 -2.2,-3.84 -3.68,-9.77 -4.64,-15.3 -1.28,-7.39 -1.66,-14.06 -1.66,-14.06 -1.67,3.39 -3.04,7.71 -4.11,11.84 -1.91,7.39 -2.86,14.21 -2.86,14.21 -1.85,-4.88 -2.67,-11.07 -3,-16.44 -0.42,-6.69 -0.1,-12.1 -0.1,-12.1 -2.01,3.41 -3.5,6.97 -4.6,10.34 -26.16,-9.79 -50.308,-19.74 -50.308,-19.74 2.876,-31.189 -0.442,-38.71 -4.117,-50.756 11.743,14.334 18.165,27.976 18.165,27.976 0,0 28.8,21.06 82.62,37.02 53.81,15.96 66.02,35.31 66.02,35.31 -8.96,6.97 -31.85,-3.32 -31.85,-3.32 19.24,15.26 36.83,8.96 36.83,8.96 0,0 32.52,16.59 22.23,21.9"
       style="fill:#ffffff;fill-opacity:1;fill-rule:nonzero;stroke:none"
       transform="matrix(1.3333333,0,0,-1.3333333,5960.0869,235.8864)" />
  </g>
</svg>
