<?xml version="1.0" encoding="UTF-8" standalone="no"?>
<!-- Created with Inkscape (http://www.inkscape.org/) -->

<svg
   version="1.1"
   id="svg1"
   width="893.58801"
   height="979.45734"
   viewBox="0 0 893.58803 979.45734"
   xmlns="http://www.w3.org/2000/svg"
   xmlns:svg="http://www.w3.org/2000/svg">
  <defs
     id="defs1" />
  <g
     id="layer-MC0"
     transform="translate(-13230.399)">
    <path
       id="path145"
       d="m 0,0 c 0,0 -77.83,-37.533 -119.017,-38.357 0,0 -4.119,9.473 0,25.948 0,0 -13.592,-4.119 -22.241,-28.831 0,0 -3.707,16.063 0,30.067 0,0 -25.555,-17.867 -26.164,-57.535 -0.608,-39.668 34.401,-24.428 56.642,-10.837 22.242,13.592 44.483,23.066 64.665,37.893 C -25.933,-26.824 0,0 0,0"
       style="fill:#0b78cf;fill-opacity:1;fill-rule:nonzero;stroke:none"
       transform="matrix(1.3333333,0,0,-1.3333333,13837.869,507.62293)" />
    <path
       id="path146"
       d="m 0,0 c 0,0 37.003,53.67 142.243,44.334 0,0 -25.535,78.726 -100.651,109.069 0,0 40.943,-58.481 39.036,-76.701 L 0,39.041 Z"
       style="fill:#0b78cf;fill-opacity:1;fill-rule:nonzero;stroke:none"
       transform="matrix(1.3333333,0,0,-1.3333333,13362.044,589.186)" />
    <path
       id="path147"
       d="M 0,0 C 0,0 28.644,1.914 35.222,-2.542 41.799,-6.997 30.766,-14.636 30.766,-14.636 30.766,-14.636 18.657,-2.329 0,0"
       style="fill:#0b78cf;fill-opacity:1;fill-rule:nonzero;stroke:none"
       transform="matrix(1.3333333,0,0,-1.3333333,13812.993,446.3256)" />
    <path
       id="path148"
       d="m 0,0 c -14.504,-14.503 -31.444,-25.746 -50.839,-33.765 -19.396,-8.019 -42.033,-12.028 -67.894,-12.028 -22.254,0 -42.685,3.875 -61.313,11.645 -10.237,4.259 -19.62,9.496 -28.214,15.637 -9.106,-4.205 -17.094,-8.157 -23.818,-11.656 -21.903,-11.4 -35.161,-20.29 -38.959,-22.926 -2.905,-5.876 -14.877,-28.985 -34.881,-53.416 8.307,-6.537 16.976,-12.629 26.035,-18.248 5.833,-3.625 11.837,-7.06 17.996,-10.302 9.093,-4.834 18.532,-9.227 28.297,-13.179 35.702,-14.466 74.493,-21.717 116.392,-21.717 45.525,0 85.236,6.868 119.136,20.565 33.879,13.698 64.268,32.461 91.184,56.249 z"
       style="fill:#0b1120;fill-opacity:1;fill-rule:nonzero;stroke:none"
       transform="matrix(1.3333333,0,0,-1.3333333,13889.311,642.33453)" />
    <path
       id="path149"
       d="M 0,0 C 30.795,23.374 55.442,32.012 65.397,34.774 64.584,67.836 48.875,95.53 33.962,110.782 l -7.699,7.875 10.861,1.824 c 6.683,1.122 13.459,1.692 20.14,1.692 39.648,0 70.905,-19.385 90.233,-35.738 1.053,3.445 2.174,6.854 3.443,10.184 0.423,1.131 0.864,2.244 1.324,3.338 7.367,18.225 17.285,33.937 29.717,47.098 13.199,13.966 29.218,24.69 48.114,32.21 18.878,7.482 39.194,11.242 60.93,11.242 25.343,0 47.578,-4.143 66.724,-12.412 19.146,-8.288 35.433,-19.664 48.901,-34.148 l 93.122,93.908 c -26.398,23.788 -56.921,42.532 -91.568,56.249 -34.666,13.697 -73.726,20.565 -117.179,20.565 -41.918,0 -80.594,-7.251 -116.028,-21.716 C 139.564,278.449 108.523,258.536 81.876,233.193 55.229,207.831 34.663,177.961 20.179,143.563 5.694,109.146 -1.538,71.775 -1.538,31.43 c 0,-1.861 0.019,-3.722 0.057,-5.564 C -1.337,17.096 -0.831,8.479 0,0"
       style="fill:#0b1120;fill-opacity:1;fill-rule:nonzero;stroke:none"
       transform="matrix(1.3333333,0,0,-1.3333333,13342.967,530.0744)" />
    <path
       id="path150"
       d="m 0,0 c -107.126,55.29 -306.836,2.628 -306.836,2.628 0,0 -50.897,66.743 -126.637,54.024 14.311,-14.638 33.726,-44.969 33.093,-84.546 0,0 -30.164,-5.544 -70.442,-36.928 0,0 2.97,-67.158 41.586,-120.627 0,0 -21.659,80.702 -19.777,117.759 54.391,29.386 106.551,26.309 106.551,26.309 -16.537,67.472 -73.189,92.297 -73.189,92.297 66.186,-5.084 103.481,-60.47 103.481,-60.47 181.773,49.649 294.981,7.636 294.981,7.636 -52.193,-9.863 -96.113,-61.741 -200.478,-88.844 -2.398,-14.887 -3.204,-27.012 -3.204,-27.012 -2.456,7.904 -4.009,16.25 -5.007,23.789 -1.822,14.043 -1.688,25.228 -1.688,25.228 -4.221,-7.367 -7.06,-18.743 -8.902,-29.352 -2.456,-14.178 -3.184,-26.974 -3.184,-26.974 -3.204,6.504 -5.832,14.791 -7.885,22.715 -3.664,14.177 -5.487,27.261 -5.487,27.261 -3.549,-9.362 -5.122,-21.238 -5.756,-31.54 -0.805,-12.834 -0.191,-23.213 -0.191,-23.213 -3.856,6.542 -6.715,13.372 -8.825,19.837 -50.187,-18.782 -96.513,-37.871 -96.513,-37.871 5.516,-59.834 -0.849,-74.262 -7.899,-97.371 22.529,27.497 34.849,53.67 34.849,53.67 0,0 55.251,40.402 158.502,71.02 103.232,30.619 126.656,67.741 126.656,67.741 -17.189,13.372 -61.103,-6.369 -61.103,-6.369 36.911,29.275 70.657,17.189 70.657,17.189 0,0 62.388,31.827 42.647,42.014"
       style="fill:#38bdf8;fill-opacity:1;fill-rule:nonzero;stroke:none"
       transform="matrix(1.3333333,0,0,-1.3333333,13971.701,452.53613)" />
  </g>
</svg>
